<svg width="176" height="43" viewBox="0 0 176 43" fill="none" xmlns="http://www.w3.org/2000/svg">
<path d="M38.88 33V14.28H42.012V17.412C42.684 16.404 43.536 15.564 44.568 14.892C45.6 14.196 46.776 13.848 48.096 13.848C49.584 13.848 50.796 14.208 51.732 14.928C52.692 15.648 53.364 16.608 53.748 17.808C54.492 16.704 55.368 15.768 56.376 15C57.408 14.232 58.68 13.848 60.192 13.848C62.232 13.848 63.744 14.496 64.728 15.792C65.736 17.064 66.24 18.732 66.24 20.796V33H63V21.048C63 19.752 62.7 18.708 62.1 17.916C61.5 17.1 60.672 16.692 59.616 16.692C58.536 16.692 57.528 17.1 56.592 17.916C55.68 18.708 54.876 19.644 54.18 20.724V33H50.94V21.048C50.94 19.752 50.64 18.708 50.04 17.916C49.44 17.1 48.612 16.692 47.556 16.692C46.5 16.692 45.504 17.088 44.568 17.88C43.632 18.648 42.816 19.56 42.12 20.616V33H38.88ZM72.2894 41.352C71.5694 41.352 70.9334 41.28 70.3814 41.136C69.8534 40.992 69.4334 40.824 69.1214 40.632L69.8414 37.932C70.1294 38.1 70.4894 38.244 70.9214 38.364C71.3534 38.484 71.8334 38.544 72.3614 38.544C73.3694 38.544 74.2694 38.22 75.0614 37.572C75.8534 36.924 76.6094 35.652 77.3294 33.756L78.1574 31.596H76.4294L69.1214 15.144L72.0014 13.848L78.9854 29.436L84.4214 13.992L87.4094 15.144L80.5334 33.936C79.8374 35.856 79.0814 37.356 78.2654 38.436C77.4494 39.516 76.5494 40.272 75.5654 40.704C74.5814 41.136 73.4894 41.352 72.2894 41.352Z" fill="#CFC9C9"/>
<path d="M97.2172 33.432C95.4172 33.432 93.9892 32.844 92.9332 31.668C91.9012 30.468 91.3852 28.764 91.3852 26.556V17.772H88.1452V14.964H91.4572L92.1412 9.06H94.6252V14.964H99.8092V17.772H94.6252V26.808C94.6252 28.2 94.9132 29.172 95.4892 29.724C96.0892 30.276 96.7972 30.552 97.6132 30.552C98.2132 30.552 98.7772 30.456 99.3052 30.264C99.8572 30.072 100.361 29.844 100.817 29.58L101.717 32.172C101.237 32.46 100.589 32.736 99.7732 33C98.9572 33.288 98.1052 33.432 97.2172 33.432ZM111.435 33.432C109.875 33.432 108.459 33.036 107.187 32.244C105.915 31.452 104.895 30.336 104.127 28.896C103.383 27.432 103.011 25.716 103.011 23.748C103.011 21.876 103.383 20.196 104.127 18.708C104.895 17.22 105.939 16.044 107.259 15.18C108.603 14.292 110.139 13.848 111.867 13.848C112.947 13.848 113.919 14.04 114.783 14.424C115.671 14.784 116.439 15.24 117.087 15.792V14.28H120.039V28.464C120.039 29.376 120.255 29.976 120.687 30.264C121.143 30.528 121.635 30.66 122.163 30.66L121.479 33.18C119.175 33.18 117.783 32.244 117.303 30.372C116.751 31.14 115.995 31.848 115.035 32.496C114.099 33.12 112.899 33.432 111.435 33.432ZM112.155 30.552C113.067 30.552 113.931 30.336 114.747 29.904C115.563 29.448 116.247 28.884 116.799 28.212V18.168C116.151 17.712 115.431 17.352 114.639 17.088C113.871 16.8 113.055 16.656 112.191 16.656C111.039 16.656 110.019 16.956 109.131 17.556C108.267 18.132 107.583 18.948 107.079 20.004C106.575 21.036 106.323 22.248 106.323 23.64C106.323 24.984 106.575 26.184 107.079 27.24C107.583 28.272 108.279 29.088 109.167 29.688C110.055 30.264 111.051 30.552 112.155 30.552ZM131.529 33.432C130.113 33.432 128.829 33.252 127.677 32.892C126.549 32.532 125.613 32.064 124.869 31.488L126.237 28.788C126.861 29.316 127.641 29.76 128.577 30.12C129.537 30.456 130.557 30.624 131.637 30.624C132.981 30.624 133.989 30.408 134.661 29.976C135.357 29.52 135.705 28.944 135.705 28.248C135.705 27.744 135.573 27.3 135.309 26.916C135.069 26.532 134.613 26.16 133.941 25.8C133.269 25.416 132.297 25.008 131.025 24.576C129.273 23.976 127.953 23.268 127.065 22.452C126.201 21.612 125.769 20.46 125.769 18.996C125.769 17.556 126.393 16.344 127.641 15.36C128.913 14.352 130.665 13.848 132.897 13.848C134.097 13.848 135.165 13.98 136.101 14.244C137.037 14.484 137.877 14.796 138.621 15.18L137.721 17.844C137.073 17.46 136.329 17.148 135.489 16.908C134.673 16.668 133.761 16.548 132.753 16.548C131.505 16.548 130.557 16.8 129.909 17.304C129.261 17.808 128.937 18.36 128.937 18.96C128.937 19.536 129.189 20.028 129.693 20.436C130.197 20.844 131.181 21.288 132.645 21.768C135.021 22.56 136.677 23.436 137.613 24.396C138.549 25.356 139.017 26.556 139.017 27.996C139.017 29.676 138.333 31.008 136.965 31.992C135.621 32.952 133.809 33.432 131.529 33.432ZM156.253 33.36L146.569 23.388V33H143.329V6.36H146.569V21.588L155.029 13.92L156.901 15.972L149.665 22.38L158.485 31.2L156.253 33.36ZM166.756 33.432C165.34 33.432 164.056 33.252 162.904 32.892C161.776 32.532 160.84 32.064 160.096 31.488L161.464 28.788C162.088 29.316 162.868 29.76 163.804 30.12C164.764 30.456 165.784 30.624 166.864 30.624C168.208 30.624 169.216 30.408 169.888 29.976C170.584 29.52 170.932 28.944 170.932 28.248C170.932 27.744 170.8 27.3 170.536 26.916C170.296 26.532 169.84 26.16 169.168 25.8C168.496 25.416 167.524 25.008 166.252 24.576C164.5 23.976 163.18 23.268 162.292 22.452C161.428 21.612 160.996 20.46 160.996 18.996C160.996 17.556 161.62 16.344 162.868 15.36C164.14 14.352 165.892 13.848 168.124 13.848C169.324 13.848 170.392 13.98 171.328 14.244C172.264 14.484 173.104 14.796 173.848 15.18L172.948 17.844C172.3 17.46 171.556 17.148 170.716 16.908C169.9 16.668 168.988 16.548 167.98 16.548C166.732 16.548 165.784 16.8 165.136 17.304C164.488 17.808 164.164 18.36 164.164 18.96C164.164 19.536 164.416 20.028 164.92 20.436C165.424 20.844 166.408 21.288 167.872 21.768C170.248 22.56 171.904 23.436 172.84 24.396C173.776 25.356 174.244 26.556 174.244 27.996C174.244 29.676 173.56 31.008 172.192 31.992C170.848 32.952 169.036 33.432 166.756 33.432Z" fill="#7619BF"/>
<path d="M21.6533 35L17.4 30.5L19.1941 28.76L21.6533 31.145L27.2059 25.76L29 27.875M15.1573 35H3.09333C1.37653 35 0 33.665 0 32V11C0 9.335 1.37653 8 3.09333 8H24.7467C26.4635 8 27.84 9.335 27.84 11V22.7C26.8965 22.175 25.8603 21.8 24.7467 21.62V11H3.09333V32H14.0437C14.2293 33.08 14.616 34.085 15.1573 35ZM13.92 29H6.18667V26H13.92M18.0651 23H6.18667V20H21.6533V21.62C20.3387 21.83 19.1323 22.31 18.0651 23ZM21.6533 17H6.18667V14H21.6533" fill="#7619BF"/>
</svg>
